<svg xmlns="http://www.w3.org/2000/svg" width="176" height="32" viewBox="0 0 176 32"><path d="M104.54 5.43h-6.063l-1.634 4.481h6.063z"/><path d="M169.015 20.824l3.058-8.699h-9.226l1.423-4.059h-2.689c-1.371 0-2.53.264-3.532.844-1.213.685-1.792 1.687-1.792 2.952 0 .685.211 1.318.633 1.845s1.002.896 1.687 1.054l-2.214 6.01h-12.811c-1.423 0-2.161-.474-2.161-1.371 0-.211.053-.422.105-.633l1.371-4.007h3.532l-1.792 3.585h5.535c1.213-.791 1.792-1.792 1.74-2.952s-.791-2.056-2.214-2.636c-1.054-.422-2.32-.633-3.743-.633h-2.53c-2.214 0-4.112.527-5.694 1.529-1.845 1.213-2.794 2.847-2.794 4.956 0 .843.211 1.582.58 2.214h-8.962l2.109-6.01h1.107c2.109 0 3.532-.896 4.217-2.689h-4.27l2.372-6.695h-3.269c-1.213 2.32-2.372 3.901-3.427 4.797-.685.58-1.687 1.054-2.9 1.476-1.318.422-2.952.422-3.321.422h-4.323l2.372-6.695h-3.269c-1.213 2.32-2.372 3.901-3.427 4.797-.949.791-2.372 1.423-4.323 1.898l-1.054 2.689h2.741l-2.109 6.01h-6.695l3.11-8.699h-6.063l-3.058 8.699h-6.906l3.058-8.699h-9.226l1.423-4.059h-2.689c-1.371 0-2.53.264-3.532.844-1.213.685-1.792 1.687-1.792 2.952 0 .685.211 1.318.633 1.845s1.002.896 1.687 1.054l-2.214 6.01h-6.748l3.058-8.699h-9.542c-2.003 0-3.743.422-5.166 1.213-1.634.949-2.689 2.32-3.163 4.112a4.906 4.906 0 0 0-.211 1.423c0 .685.158 1.318.422 1.898H39.116c-1.423 0-2.161-.474-2.161-1.371 0-.211.053-.422.105-.633l1.371-4.007h3.532l-1.792 3.585h5.535c1.213-.791 1.792-1.792 1.74-2.952s-.791-2.056-2.214-2.636c-1.054-.422-2.32-.633-3.743-.633h-2.478c-2.214 0-4.112.527-5.694 1.529-1.845 1.213-2.794 2.847-2.794 4.956 0 .843.211 1.582.58 2.214H19.505c3.163-1.634 5.641-3.796 7.328-6.59 1.423-2.267 2.109-4.428 2.109-6.484 0-2.636-1.107-4.639-3.269-6.01C23.881.578 21.561-.002 18.767-.002H2.583L0 4.215h16.184c2.003 0 3.427.369 4.428 1.107 1.054.843 1.582 2.214 1.582 4.112 0 1.16-.422 2.636-1.318 4.376-1.002 2.003-2.583 3.638-4.745 5.008s-4.323 2.003-6.537 2.003l5.114-14.445H12.81c-3.638-.053-4.692 1.792-5.43 3.69L2.635 23.509h52.56c-2.161 1.371-3.005 5.588-.791 7.433a4.61 4.61 0 0 0 3.005 1.054c2.214 0 4.007-.896 5.483-2.636 1.002-1.213 1.951-3.163 2.952-5.852h6.537c.949 0 1.792-.211 2.53-.633 1.107-.685 1.476-1.423 2.267-3.269l1.845-4.797h3.585l-1.898 5.43a3.194 3.194 0 0 0-.211 1.16c0 1.423.844 2.109 2.53 2.109h72.224c.949 0 1.792-.211 2.53-.633 1.107-.685 1.476-1.423 2.267-3.269l1.845-4.797h3.585l-1.898 5.43a3.194 3.194 0 0 0-.211 1.16c0 1.423.844 2.109 2.53 2.109h6.379c.844 0 1.634-.211 2.372-.685.844-.527 1.265-1.213 1.265-1.951h-6.906zM57.779 29.47c-.633-.422-.949-1.054-.949-1.792 0-.843.316-1.634.949-2.478s1.318-1.265 2.056-1.265l-2.056 5.535zm2.794-8.33h-.738c-1.371 0-2.056-.474-2.056-1.423 0-.211.053-.422.105-.685l1.318-4.27h3.585l-2.214 6.379zm59.994-.316h-8.857l2.109-6.01h8.857l-2.109 6.01z"/></svg>