<svg xmlns="http://www.w3.org/2000/svg" id="Layer_2" data-name="Layer 2" width="540" height="86.68" viewBox="0 0 540 86.68"><g id="Layer_1-2" data-name="Layer 1-2"><g><g><polygon points="50.75 43.34 7.39 86.68 0 86.68 0 59.95 16.61 43.34 0 26.71 0 0 7.41 0 50.75 43.34" style="fill: #f26a24;"></polygon><polygon points="67.36 0 67.36 26.71 54.27 39.81 37.3 22.84 37.2 22.74 59.95 0 67.36 0" style="fill: #f26a24;"></polygon><polygon points="67.36 59.95 54.27 46.85 37.18 63.92 59.97 86.68 67.36 86.68 67.36 59.95" style="fill: #f26a24;"></polygon></g><g><path d="M122.58,61.71l-4.94,11.44h-16.15l26.75-59.63h22.77l27.23,59.63h-15.78l-5.18-11.44s-34.7,0-34.7,0Zm17.35-39.42l-13.74,30.93h27.59l-13.85-30.93Z" style="fill: #fff;"></path><path d="M233.95,42.4l25.67,30.75h-17.83l-11.57-14.31c-2.65-3.4-3.49-4.56-6.75-9.12l-1.69-2.33h-.24l-2.65,3.76c-1.45,1.97-3.01,4.11-5.9,7.69l-11.69,14.31h-18.31l26.39-30.75-24.46-28.88h18.07l10.84,13.32c2.89,3.67,3.38,4.29,7.59,10.37h.24l1.57-2.15c2.65-3.75,3.49-4.92,6.14-8.23l10.72-13.32h17.95l-24.1,28.88h0Z" style="fill: #fff;"></path><path d="M315.32,42.4l25.67,30.75h-17.83l-11.57-14.31c-2.65-3.4-3.49-4.56-6.75-9.12l-1.69-2.33h-.24l-2.65,3.76c-1.45,1.97-3.01,4.11-5.9,7.69l-11.69,14.31h-18.31l26.39-30.75-24.46-28.88h18.07l10.84,13.32c2.89,3.67,3.38,4.29,7.59,10.37h.24l1.57-2.15c2.65-3.75,3.49-4.92,6.14-8.23l10.72-13.32h17.95l-24.1,28.88h0Z" style="fill: #fff;"></path><path d="M360.57,38.47h37.47v8.41h-37.47v16.81h39.88v9.48h-55.31V13.52h54.94v9.48h-39.52v15.47h0Z" style="fill: #fff;"></path><path d="M453.88,30.96v-1.07c0-6.53-2.53-7.87-14.94-7.87-14.58,0-17.47,1.34-17.47,8.14,0,4.29,1.45,6.26,5.3,7.15,2.05,.45,2.77,.45,15.3,.98,13.5,.63,18.07,1.25,21.93,3.31,4.94,2.5,6.63,5.99,6.63,13.59s-1.45,11.44-4.94,14.04c-4.82,3.49-10.97,4.47-27.71,4.47-14.58,0-19.52-.63-24.82-2.95-3.01-1.34-5.55-4.2-6.39-7.33-.72-2.59-.84-4.38-.97-9.12h14.82c0,4.47,.36,5.99,1.69,7.51,1.93,2.41,3.86,2.68,16.38,2.68,9.04,0,11.57-.27,13.86-1.61,2.05-1.07,2.89-3.4,2.89-7.51s-1.21-5.81-4.46-6.61c-1.29-.36-6.39-.75-15.3-1.16-13.74-.62-16.63-.98-20.72-2.41-6.39-2.33-8.92-6.62-8.92-14.84,0-7.06,2.05-11.44,6.38-13.77,4.94-2.77,11.2-3.58,26.15-3.58s21.57,1.16,25.54,4.47c3.13,2.59,4.58,6.17,4.58,11.35v2.15h-14.81Z" style="fill: #fff;"></path><path d="M523.25,30.96v-1.07c0-6.53-2.53-7.87-14.94-7.87-14.58,0-17.47,1.34-17.47,8.14,0,4.29,1.45,6.26,5.3,7.15,2.05,.45,2.77,.45,15.3,.98,13.5,.63,18.07,1.25,21.93,3.31,4.94,2.5,6.63,5.99,6.63,13.59s-1.45,11.44-4.94,14.04c-4.82,3.49-10.96,4.47-27.71,4.47-14.58,0-19.52-.63-24.82-2.95-3.01-1.34-5.55-4.2-6.39-7.33-.72-2.59-.84-4.38-.97-9.12h14.82c0,4.47,.36,5.99,1.69,7.51,1.93,2.41,3.86,2.68,16.39,2.68,9.03,0,11.56-.27,13.85-1.61,2.05-1.07,2.89-3.4,2.89-7.51s-1.21-5.81-4.46-6.61c-1.29-.36-6.39-.75-15.3-1.16-13.74-.62-16.63-.98-20.72-2.41-6.39-2.33-8.92-6.62-8.92-14.84,0-7.06,2.05-11.44,6.38-13.77,4.94-2.77,11.2-3.58,26.15-3.58s21.57,1.16,25.54,4.47c3.13,2.59,4.58,6.17,4.58,11.35v2.15h-14.81Z" style="fill: #fff;"></path></g></g></g></svg>